<mxfile host="app.diagrams.net" modified="2023-04-16T21:28:29.154Z" agent="Mozilla/5.0 (Windows NT 10.0; Win64; x64) AppleWebKit/537.36 (KHTML, like Gecko) Chrome/112.0.0.0 Safari/537.36" etag="z99p6H8_U5r_O1JdVet7" version="21.1.8" type="device">
  <diagram name="Page-1" id="m3W3GeHNY0vPOli2ZKDQ">
    <mxGraphModel dx="880" dy="387" grid="1" gridSize="10" guides="1" tooltips="1" connect="1" arrows="1" fold="1" page="1" pageScale="1" pageWidth="827" pageHeight="1169" math="0" shadow="0">
      <root>
        <mxCell id="0" />
        <mxCell id="1" parent="0" />
        <mxCell id="nLqp4Yt5BPmPxzOCfhhY-1" value="AI Pedagogy&lt;br&gt;&lt;br&gt;- knowledge transfer-&amp;gt;" style="shape=hexagon;perimeter=hexagonPerimeter2;whiteSpace=wrap;html=1;fixedSize=1;" vertex="1" parent="1">
          <mxGeometry x="350" y="50" width="136" height="80" as="geometry" />
        </mxCell>
        <mxCell id="nLqp4Yt5BPmPxzOCfhhY-7" value="Human&lt;br&gt;Intelligence" style="whiteSpace=wrap;html=1;aspect=fixed;" vertex="1" parent="1">
          <mxGeometry x="300" y="120" width="80" height="80" as="geometry" />
        </mxCell>
        <mxCell id="nLqp4Yt5BPmPxzOCfhhY-8" value="Artificial&lt;br&gt;Intelligence" style="whiteSpace=wrap;html=1;aspect=fixed;" vertex="1" parent="1">
          <mxGeometry x="450" y="120" width="80" height="80" as="geometry" />
        </mxCell>
      </root>
    </mxGraphModel>
  </diagram>
</mxfile>
